<svg xmlns="http://www.w3.org/2000/svg" viewBox="0 0 512 512">

<defs>

<linearGradient id="bg" x1="0%" y1="0%" x2="100%" y2="100%">
<stop offset="0%" stop-color="#5AA8FF"/>
<stop offset="100%" stop-color="#f34f83ff"/>
</linearGradient>

<linearGradient id="glass" x1="0%" y1="0%" x2="100%" y2="100%">
<stop offset="0%" stop-color="#FFFFFF"/>
<stop offset="100%" stop-color="#EAFBFF"/>
</linearGradient>

<filter id="glow" x="-80%" y="-80%" width="260%" height="260%">
<feDropShadow dx="0" dy="0" stdDeviation="4" flood-color="#00F5FF"/>
<feDropShadow dx="0" dy="0" stdDeviation="10" flood-color="#00F5FF"/>
<feDropShadow dx="0" dy="0" stdDeviation="22" flood-color="#00F5FF"/>
</filter>

</defs>

<rect x="10" y="10" width="492" height="492" rx="95" fill="url(#bg)"/>

<g filter="url(#glow)">

<!-- Left Stem -->
<path
d="
M135 95
C135 82 145 72 158 72
H182
C195 72 205 82 205 95
V417
C205 430 195 440 182 440
H158
C145 440 135 430 135 417
Z"
fill="url(#glass)"/>

<!-- Upper Wing -->
<path
d="
M205 255
L360 90
C370 80 387 80 397 90
L415 108
C425 118 425 135 415 145
L300 255
L415 365
C425 375 425 392 415 402
L397 420
C387 430 370 430 360 420
Z"
fill="url(#glass)"/>

<!-- Inner Neon Slice -->
<path
d="
M255 255
L375 130"
stroke="#00F8FF"
stroke-width="10"
stroke-linecap="round"/>

<path
d="
M255 255
L375 380"
stroke="#00F8FF"
stroke-width="10"
stroke-linecap="round"/>

<path
d="
M170 100
L170 400"
stroke="#00F8FF"
stroke-width="10"
stroke-linecap="round"/>

</g>

</svg>
